<svg version="1.1" viewBox="0.0 0.0 1102.3884514435695 594.488188976378" fill="none" stroke="none" stroke-linecap="square" stroke-miterlimit="10" xmlns:xlink="http://www.w3.org/1999/xlink" xmlns="http://www.w3.org/2000/svg"><clipPath id="p.0"><path d="m0 0l1102.3884 0l0 594.48816l-1102.3884 0l0 -594.48816z" clip-rule="nonzero"/></clipPath><g clip-path="url(#p.0)"><path fill="#000000" fill-opacity="0.0" d="m0 0l1102.3884 0l0 594.48816l-1102.3884 0z" fill-rule="evenodd"/><path fill="#4a86e8" d="m22.439999 45.849533l0 0c0 -12.428581 10.702862 -22.503937 23.905514 -22.503937l0 0c6.3401337 0 12.420593 2.370943 16.903748 6.5912495c4.4831543 4.2203083 7.0017624 9.944273 7.0017624 15.912687l0 0c0 12.428581 -10.702862 22.503937 -23.90551 22.503937l0 0c-13.202652 0 -23.905514 -10.075356 -23.905514 -22.503937z" fill-rule="evenodd"/><path fill="#ff9900" d="m647.40314 23.346739l47.810974 0l0 45.007874l-47.810974 0z" fill-rule="evenodd"/><path fill="#4a86e8" d="m101.39275 45.849533l0 0c0 -12.428581 10.702866 -22.503937 23.90551 -22.503937l0 0c6.3401337 0 12.420593 2.370943 16.903748 6.5912495c4.4831543 4.2203083 7.00177 9.944273 7.00177 15.912687l0 0c0 12.428581 -10.702866 22.503937 -23.905518 22.503937l0 0c-13.202644 0 -23.90551 -10.075356 -23.90551 -22.503937z" fill-rule="evenodd"/><path fill="#4a86e8" d="m22.439999 107.621185l0 0c0 -12.428581 10.702862 -22.503937 23.905514 -22.503937l0 0c6.3401337 0 12.420593 2.3709412 16.903748 6.591255c4.4831543 4.2203064 7.0017624 9.944267 7.0017624 15.912682l0 0c0 12.428581 -10.702862 22.503937 -23.90551 22.503937l0 0c-13.202652 0 -23.905514 -10.075356 -23.905514 -22.503937z" fill-rule="evenodd"/><path fill="#4a86e8" d="m101.39275 107.621185l0 0c0 -12.428581 10.702866 -22.503937 23.90551 -22.503937l0 0c6.3401337 0 12.420593 2.3709412 16.903748 6.591255c4.4831543 4.2203064 7.00177 9.944267 7.00177 15.912682l0 0c0 12.428581 -10.702866 22.503937 -23.905518 22.503937l0 0c-13.202644 0 -23.90551 -10.075356 -23.90551 -22.503937z" fill-rule="evenodd"/><path fill="#4a86e8" d="m22.439999 169.39284l0 0c0 -12.428574 10.702862 -22.503937 23.905514 -22.503937l0 0c6.3401337 0 12.420593 2.3709412 16.903748 6.5912476c4.4831543 4.2203064 7.0017624 9.944275 7.0017624 15.912689l0 0c0 12.428589 -10.702862 22.503937 -23.90551 22.503937l0 0c-13.202652 0 -23.905514 -10.075348 -23.905514 -22.503937z" fill-rule="evenodd"/><path fill="#4a86e8" d="m101.39275 169.39284l0 0c0 -12.428574 10.702866 -22.503937 23.90551 -22.503937l0 0c6.3401337 0 12.420593 2.3709412 16.903748 6.5912476c4.4831543 4.2203064 7.00177 9.944275 7.00177 15.912689l0 0c0 12.428589 -10.702866 22.503937 -23.905518 22.503937l0 0c-13.202644 0 -23.90551 -10.075348 -23.90551 -22.503937z" fill-rule="evenodd"/><path fill="#4a86e8" d="m177.39276 45.849533l0 0c0 -12.428581 10.70285 -22.503937 23.905502 -22.503937l0 0c6.3401337 0 12.420593 2.370943 16.903748 6.5912495c4.4831543 4.2203083 7.00177 9.944273 7.00177 15.912687l0 0c0 12.428581 -10.702866 22.503937 -23.905518 22.503937l0 0c-13.202652 0 -23.905502 -10.075356 -23.905502 -22.503937z" fill-rule="evenodd"/><path fill="#4a86e8" d="m253.39276 45.849533l0 0c0 -12.428581 10.70285 -22.503937 23.905518 -22.503937l0 0c6.3401184 0 12.420593 2.370943 16.903748 6.5912495c4.4831543 4.2203083 7.0017395 9.944273 7.0017395 15.912687l0 0c0 12.428581 -10.70285 22.503937 -23.905487 22.503937l0 0c-13.202667 0 -23.905518 -10.075356 -23.905518 -22.503937z" fill-rule="evenodd"/><path fill="#4a86e8" d="m177.39276 107.621185l0 0c0 -12.428581 10.70285 -22.503937 23.905502 -22.503937l0 0c6.3401337 0 12.420593 2.3709412 16.903748 6.591255c4.4831543 4.2203064 7.00177 9.944267 7.00177 15.912682l0 0c0 12.428581 -10.702866 22.503937 -23.905518 22.503937l0 0c-13.202652 0 -23.905502 -10.075356 -23.905502 -22.503937z" fill-rule="evenodd"/><path fill="#4a86e8" d="m253.39276 107.621185l0 0c0 -12.428581 10.70285 -22.503937 23.905518 -22.503937l0 0c6.3401184 0 12.420593 2.3709412 16.903748 6.591255c4.4831543 4.2203064 7.0017395 9.944267 7.0017395 15.912682l0 0c0 12.428581 -10.70285 22.503937 -23.905487 22.503937l0 0c-13.202667 0 -23.905518 -10.075356 -23.905518 -22.503937z" fill-rule="evenodd"/><path fill="#4a86e8" d="m177.39276 169.39284l0 0c0 -12.428574 10.70285 -22.503937 23.905502 -22.503937l0 0c6.3401337 0 12.420593 2.3709412 16.903748 6.5912476c4.4831543 4.2203064 7.00177 9.944275 7.00177 15.912689l0 0c0 12.428589 -10.702866 22.503937 -23.905518 22.503937l0 0c-13.202652 0 -23.905502 -10.075348 -23.905502 -22.503937z" fill-rule="evenodd"/><path fill="#4a86e8" d="m253.39276 169.39284l0 0c0 -12.428574 10.70285 -22.503937 23.905518 -22.503937l0 0c6.3401184 0 12.420593 2.3709412 16.903748 6.5912476c4.4831543 4.2203064 7.0017395 9.944275 7.0017395 15.912689l0 0c0 12.428589 -10.70285 22.503937 -23.905487 22.503937l0 0c-13.202667 0 -23.905518 -10.075348 -23.905518 -22.503937z" fill-rule="evenodd"/><path fill="#4a86e8" d="m416.45145 45.849533l0 0c0 -12.428581 10.70285 -22.503937 23.905518 -22.503937l0 0c6.3401184 0 12.420593 2.370943 16.903748 6.5912495c4.4831543 4.2203083 7.00177 9.944273 7.00177 15.912687l0 0c0 12.428581 -10.702881 22.503937 -23.905518 22.503937l0 0c-13.202667 0 -23.905518 -10.075356 -23.905518 -22.503937z" fill-rule="evenodd"/><path fill="#4a86e8" d="m495.4042 45.849533l0 0c0 -12.428581 10.70285 -22.503937 23.905487 -22.503937l0 0c6.340149 0 12.420593 2.370943 16.903748 6.5912495c4.4831543 4.2203083 7.00177 9.944273 7.00177 15.912687l0 0c0 12.428581 -10.70282 22.503937 -23.905518 22.503937l0 0c-13.202637 0 -23.905487 -10.075356 -23.905487 -22.503937z" fill-rule="evenodd"/><path fill="#4a86e8" d="m416.45145 107.621185l0 0c0 -12.428581 10.70285 -22.503937 23.905518 -22.503937l0 0c6.3401184 0 12.420593 2.3709412 16.903748 6.591255c4.4831543 4.2203064 7.00177 9.944267 7.00177 15.912682l0 0c0 12.428581 -10.702881 22.503937 -23.905518 22.503937l0 0c-13.202667 0 -23.905518 -10.075356 -23.905518 -22.503937z" fill-rule="evenodd"/><path fill="#4a86e8" d="m495.4042 107.621185l0 0c0 -12.428581 10.70285 -22.503937 23.905487 -22.503937l0 0c6.340149 0 12.420593 2.3709412 16.903748 6.591255c4.4831543 4.2203064 7.00177 9.944267 7.00177 15.912682l0 0c0 12.428581 -10.70282 22.503937 -23.905518 22.503937l0 0c-13.202637 0 -23.905487 -10.075356 -23.905487 -22.503937z" fill-rule="evenodd"/><path fill="#4a86e8" d="m416.45145 169.39284l0 0c0 -12.428574 10.70285 -22.503937 23.905518 -22.503937l0 0c6.3401184 0 12.420593 2.3709412 16.903748 6.5912476c4.4831543 4.2203064 7.00177 9.944275 7.00177 15.912689l0 0c0 12.428589 -10.702881 22.503937 -23.905518 22.503937l0 0c-13.202667 0 -23.905518 -10.075348 -23.905518 -22.503937z" fill-rule="evenodd"/><path fill="#4a86e8" d="m495.4042 169.39284l0 0c0 -12.428574 10.70285 -22.503937 23.905487 -22.503937l0 0c6.340149 0 12.420593 2.3709412 16.903748 6.5912476c4.4831543 4.2203064 7.00177 9.944275 7.00177 15.912689l0 0c0 12.428589 -10.70282 22.503937 -23.905518 22.503937l0 0c-13.202637 0 -23.905487 -10.075348 -23.905487 -22.503937z" fill-rule="evenodd"/><path fill="#4a86e8" d="m571.4042 45.849533l0 0c0 -12.428581 10.702881 -22.503937 23.905518 -22.503937l0 0c6.340149 0 12.420593 2.370943 16.903748 6.5912495c4.4831543 4.2203083 7.00177 9.944273 7.00177 15.912687l0 0c0 12.428581 -10.70282 22.503937 -23.905518 22.503937l0 0c-13.202637 0 -23.905518 -10.075356 -23.905518 -22.503937z" fill-rule="evenodd"/><path fill="#4a86e8" d="m571.4042 107.621185l0 0c0 -12.428581 10.702881 -22.503937 23.905518 -22.503937l0 0c6.340149 0 12.420593 2.3709412 16.903748 6.591255c4.4831543 4.2203064 7.00177 9.944267 7.00177 15.912682l0 0c0 12.428581 -10.70282 22.503937 -23.905518 22.503937l0 0c-13.202637 0 -23.905518 -10.075356 -23.905518 -22.503937z" fill-rule="evenodd"/><path fill="#4a86e8" d="m571.4042 169.39284l0 0c0 -12.428574 10.702881 -22.503937 23.905518 -22.503937l0 0c6.340149 0 12.420593 2.3709412 16.903748 6.5912476c4.4831543 4.2203064 7.00177 9.944275 7.00177 15.912689l0 0c0 12.428589 -10.70282 22.503937 -23.905518 22.503937l0 0c-13.202637 0 -23.905518 -10.075348 -23.905518 -22.503937z" fill-rule="evenodd"/><path fill="#4a86e8" d="m22.439999 364.93616l0 0c0 -12.428589 10.702862 -22.503937 23.905514 -22.503937l0 0c6.3401337 0 12.420593 2.3709412 16.903748 6.5912476c4.4831543 4.2203064 7.0017624 9.944275 7.0017624 15.912689l0 0c0 12.428558 -10.702862 22.503937 -23.90551 22.503937l0 0c-13.202652 0 -23.905514 -10.075378 -23.905514 -22.503937z" fill-rule="evenodd"/><path fill="#4a86e8" d="m101.39275 364.93616l0 0c0 -12.428589 10.702866 -22.503937 23.90551 -22.503937l0 0c6.3401337 0 12.420593 2.3709412 16.903748 6.5912476c4.4831543 4.2203064 7.00177 9.944275 7.00177 15.912689l0 0c0 12.428558 -10.702866 22.503937 -23.905518 22.503937l0 0c-13.202644 0 -23.90551 -10.075378 -23.90551 -22.503937z" fill-rule="evenodd"/><path fill="#4a86e8" d="m22.439999 426.7078l0 0c0 -12.428589 10.702862 -22.503937 23.905514 -22.503937l0 0c6.3401337 0 12.420593 2.3709412 16.903748 6.5912476c4.4831543 4.2203064 7.0017624 9.944275 7.0017624 15.912689l0 0c0 12.428589 -10.702862 22.503937 -23.90551 22.503937l0 0c-13.202652 0 -23.905514 -10.075348 -23.905514 -22.503937z" fill-rule="evenodd"/><path fill="#4a86e8" d="m101.39275 426.7078l0 0c0 -12.428589 10.702866 -22.503937 23.90551 -22.503937l0 0c6.3401337 0 12.420593 2.3709412 16.903748 6.5912476c4.4831543 4.2203064 7.00177 9.944275 7.00177 15.912689l0 0c0 12.428589 -10.702866 22.503937 -23.905518 22.503937l0 0c-13.202644 0 -23.90551 -10.075348 -23.90551 -22.503937z" fill-rule="evenodd"/><path fill="#ff9900" d="m647.40314 85.11839l47.810974 0l0 45.007874l-47.810974 0z" fill-rule="evenodd"/><path fill="#ff9900" d="m647.40314 146.89005l47.810974 0l0 45.007874l-47.810974 0z" fill-rule="evenodd"/><path fill="#ff9900" d="m253.39166 342.43335l47.811035 0l0 45.007874l-47.811035 0z" fill-rule="evenodd"/><path fill="#ff9900" d="m253.39166 404.20502l47.811035 0l0 45.007874l-47.811035 0z" fill-rule="evenodd"/><path fill="#ff9900" d="m177.39166 342.43335l47.81102 0l0 45.007874l-47.81102 0z" fill-rule="evenodd"/><path fill="#ff9900" d="m177.39166 404.20502l47.81102 0l0 45.007874l-47.81102 0z" fill-rule="evenodd"/><path fill="#000000" fill-opacity="0.0" d="m416.45145 352.99915l0 0c0 -12.428589 10.70285 -22.503937 23.905518 -22.503937l0 0c6.3401184 0 12.420593 2.3709412 16.903748 6.5912476c4.4831543 4.2203064 7.00177 9.944275 7.00177 15.912689l0 0c0 12.428589 -10.702881 22.503937 -23.905518 22.503937l0 0c-13.202667 0 -23.905518 -10.075348 -23.905518 -22.503937z" fill-rule="evenodd"/><path stroke="#4a86e8" stroke-width="3.0" stroke-linejoin="round" stroke-linecap="butt" d="m416.45145 352.99915l0 0c0 -12.428589 10.70285 -22.503937 23.905518 -22.503937l0 0c6.3401184 0 12.420593 2.3709412 16.903748 6.5912476c4.4831543 4.2203064 7.00177 9.944275 7.00177 15.912689l0 0c0 12.428589 -10.702881 22.503937 -23.905518 22.503937l0 0c-13.202667 0 -23.905518 -10.075348 -23.905518 -22.503937z" fill-rule="evenodd"/><path fill="#000000" fill-opacity="0.0" d="m495.4042 352.99915l0 0c0 -12.428589 10.70285 -22.503937 23.905487 -22.503937l0 0c6.340149 0 12.420593 2.3709412 16.903748 6.5912476c4.4831543 4.2203064 7.00177 9.944275 7.00177 15.912689l0 0c0 12.428589 -10.70282 22.503937 -23.905518 22.503937l0 0c-13.202637 0 -23.905487 -10.075348 -23.905487 -22.503937z" fill-rule="evenodd"/><path stroke="#4a86e8" stroke-width="3.0" stroke-linejoin="round" stroke-linecap="butt" d="m495.4042 352.99915l0 0c0 -12.428589 10.70285 -22.503937 23.905487 -22.503937l0 0c6.340149 0 12.420593 2.3709412 16.903748 6.5912476c4.4831543 4.2203064 7.00177 9.944275 7.00177 15.912689l0 0c0 12.428589 -10.70282 22.503937 -23.905518 22.503937l0 0c-13.202637 0 -23.905487 -10.075348 -23.905487 -22.503937z" fill-rule="evenodd"/><path fill="#4a86e8" d="m571.4042 352.99915l0 0c0 -12.428589 10.702881 -22.503937 23.905518 -22.503937l0 0c6.340149 0 12.420593 2.3709412 16.903748 6.5912476c4.4831543 4.2203064 7.00177 9.944275 7.00177 15.912689l0 0c0 12.428589 -10.70282 22.503937 -23.905518 22.503937l0 0c-13.202637 0 -23.905518 -10.075348 -23.905518 -22.503937z" fill-rule="evenodd"/><path fill="#4a86e8" d="m647.4042 352.99915l0 0c0 -12.428589 10.702881 -22.503937 23.905518 -22.503937l0 0c6.340149 0 12.420593 2.3709412 16.903748 6.5912476c4.4831543 4.2203064 7.00177 9.944275 7.00177 15.912689l0 0c0 12.428589 -10.70282 22.503937 -23.905518 22.503937l0 0c-13.202637 0 -23.905518 -10.075348 -23.905518 -22.503937z" fill-rule="evenodd"/><path fill="#000000" fill-opacity="0.0" d="m416.4514 510.9834l23.905518 -45.007874l23.905518 45.007874z" fill-rule="evenodd"/><path stroke="#ff6633" stroke-width="3.0" stroke-linejoin="round" stroke-linecap="butt" d="m416.4514 510.9834l23.905518 -45.007874l23.905518 45.007874z" fill-rule="evenodd"/><path fill="#000000" fill-opacity="0.0" d="m416.45035 398.2365l47.811035 0l0 45.007874l-47.811035 0z" fill-rule="evenodd"/><path stroke="#ff9900" stroke-width="3.0" stroke-linejoin="round" stroke-linecap="butt" d="m416.45035 398.2365l47.811035 0l0 45.007874l-47.811035 0z" fill-rule="evenodd"/><path fill="#000000" fill-opacity="0.0" d="m495.4031 398.2365l47.811005 0l0 45.007874l-47.811005 0z" fill-rule="evenodd"/><path stroke="#ff9900" stroke-width="3.0" stroke-linejoin="round" stroke-linecap="butt" d="m495.4031 398.2365l47.811005 0l0 45.007874l-47.811005 0z" fill-rule="evenodd"/><path fill="#ff9900" d="m571.40314 398.2365l47.810974 0l0 45.007874l-47.810974 0z" fill-rule="evenodd"/><path fill="#ff9900" d="m647.40314 398.2365l47.810974 0l0 45.007874l-47.810974 0z" fill-rule="evenodd"/><path fill="#000000" fill-opacity="0.0" d="m495.40414 510.9834l23.905487 -45.007874l23.905518 45.007874z" fill-rule="evenodd"/><path stroke="#ff6633" stroke-width="3.0" stroke-linejoin="round" stroke-linecap="butt" d="m495.40414 510.9834l23.905487 -45.007874l23.905518 45.007874z" fill-rule="evenodd"/><path fill="#ff6633" d="m571.4041 510.9834l23.905518 -45.007874l23.905518 45.007874z" fill-rule="evenodd"/><path fill="#ff6633" d="m647.4041 510.9834l23.905518 -45.007874l23.905518 45.007874z" fill-rule="evenodd"/><path fill="#4a86e8" d="m798.8583 45.849533l0 0c0 -12.428581 10.702881 -22.503937 23.905518 -22.503937l0 0c6.340149 0 12.420593 2.370943 16.903748 6.5912495c4.4831543 4.2203083 7.00177 9.944273 7.00177 15.912687l0 0c0 12.428581 -10.702881 22.503937 -23.905518 22.503937l0 0c-13.202637 0 -23.905518 -10.075356 -23.905518 -22.503937z" fill-rule="evenodd"/><path fill="#4a86e8" d="m877.81104 45.849533l0 0c0 -12.428581 10.702881 -22.503937 23.905518 -22.503937l0 0c6.340149 0 12.420593 2.370943 16.903748 6.5912495c4.4831543 4.2203083 7.00177 9.944273 7.00177 15.912687l0 0c0 12.428581 -10.702881 22.503937 -23.905518 22.503937l0 0c-13.202637 0 -23.905518 -10.075356 -23.905518 -22.503937z" fill-rule="evenodd"/><path fill="#4a86e8" d="m798.8583 107.621185l0 0c0 -12.428581 10.702881 -22.503937 23.905518 -22.503937l0 0c6.340149 0 12.420593 2.3709412 16.903748 6.591255c4.4831543 4.2203064 7.00177 9.944267 7.00177 15.912682l0 0c0 12.428581 -10.702881 22.503937 -23.905518 22.503937l0 0c-13.202637 0 -23.905518 -10.075356 -23.905518 -22.503937z" fill-rule="evenodd"/><path fill="#4a86e8" d="m877.81104 107.621185l0 0c0 -12.428581 10.702881 -22.503937 23.905518 -22.503937l0 0c6.340149 0 12.420593 2.3709412 16.903748 6.591255c4.4831543 4.2203064 7.00177 9.944267 7.00177 15.912682l0 0c0 12.428581 -10.702881 22.503937 -23.905518 22.503937l0 0c-13.202637 0 -23.905518 -10.075356 -23.905518 -22.503937z" fill-rule="evenodd"/><path fill="#4a86e8" d="m798.8583 169.39284l0 0c0 -12.428574 10.702881 -22.503937 23.905518 -22.503937l0 0c6.340149 0 12.420593 2.3709412 16.903748 6.5912476c4.4831543 4.2203064 7.00177 9.944275 7.00177 15.912689l0 0c0 12.428589 -10.702881 22.503937 -23.905518 22.503937l0 0c-13.202637 0 -23.905518 -10.075348 -23.905518 -22.503937z" fill-rule="evenodd"/><path fill="#4a86e8" d="m877.81104 169.39284l0 0c0 -12.428574 10.702881 -22.503937 23.905518 -22.503937l0 0c6.340149 0 12.420593 2.3709412 16.903748 6.5912476c4.4831543 4.2203064 7.00177 9.944275 7.00177 15.912689l0 0c0 12.428589 -10.702881 22.503937 -23.905518 22.503937l0 0c-13.202637 0 -23.905518 -10.075348 -23.905518 -22.503937z" fill-rule="evenodd"/><path fill="#ff9900" d="m1029.8099 23.346739l47.811035 0l0 45.007874l-47.811035 0z" fill-rule="evenodd"/><path fill="#ff9900" d="m1029.8099 85.11839l47.811035 0l0 45.007874l-47.811035 0z" fill-rule="evenodd"/><path fill="#ff9900" d="m1029.8099 146.89005l47.811035 0l0 45.007874l-47.811035 0z" fill-rule="evenodd"/><path fill="#ff9900" d="m953.80994 23.346739l47.811035 0l0 45.007874l-47.811035 0z" fill-rule="evenodd"/><path fill="#ff9900" d="m953.80994 85.11839l47.811035 0l0 45.007874l-47.811035 0z" fill-rule="evenodd"/><path fill="#ff9900" d="m953.80994 146.89005l47.811035 0l0 45.007874l-47.811035 0z" fill-rule="evenodd"/><path fill="#000000" fill-opacity="0.0" d="m54.277645 207.58005l217.13385 0l0 64.62991l-217.13385 0z" fill-rule="evenodd"/><path fill="#434343" d="m83.102394 247.30005l0 -22.90625l16.5625 0l0 2.703125l-13.53125 0l0 7.015625l12.671875 0l0 2.6875l-12.671875 0l0 7.796875l14.0625 0l0 2.703125l-17.09375 0zm20.921875 0l0 -16.59375l2.53125 0l0 2.359375q1.828125 -2.734375 5.28125 -2.734375q1.5 0 2.75 0.546875q1.265625 0.53125 1.890625 1.40625q0.625 0.875 0.875 2.078125q0.15625 0.78125 0.15625 2.734375l0 10.203125l-2.8125 0l0 -10.09375q0 -1.71875 -0.328125 -2.5625q-0.328125 -0.859375 -1.171875 -1.359375q-0.828125 -0.515625 -1.953125 -0.515625q-1.796875 0 -3.109375 1.140625q-1.296875 1.140625 -1.296875 4.328125l0 9.0625l-2.8125 0zm23.9375 -2.515625l0.40624237 2.484375q-1.1874924 0.25 -2.1249924 0.25q-1.53125 0 -2.375 -0.484375q-0.84375 -0.484375 -1.1875 -1.265625q-0.34375 -0.796875 -0.34375 -3.328125l0 -9.546875l-2.0625 0l0 -2.1875l2.0625 0l0 -4.109375l2.796875 -1.6875l0 5.796875l2.828125 0l0 2.1875l-2.828125 0l0 9.703125q0 1.203125 0.140625 1.546875q0.15625 0.34375 0.484375 0.546875q0.34375 0.203125 0.96875 0.203125q0.46875 0 1.234375 -0.109375zm2.7187424 2.515625l0 -16.59375l2.53125 0l0 2.515625q0.96875 -1.765625 1.78125 -2.328125q0.828125 -0.5625 1.8125 -0.5625q1.421875 0 2.890625 0.90625l-0.96875 2.609375q-1.03125 -0.609375 -2.0625 -0.609375q-0.921875 0 -1.65625 0.5625q-0.734375 0.546875 -1.046875 1.53125q-0.46875 1.5 -0.46875 3.28125l0 8.6875l-2.8125 0zm9.640625 -8.296875q0 -4.609375 2.5625 -6.828125q2.140625 -1.84375 5.21875 -1.84375q3.421875 0 5.59375 2.25q2.171875 2.234375 2.171875 6.1875q0 3.203125 -0.96875 5.046875q-0.953125 1.828125 -2.796875 2.84375q-1.828125 1.015625 -4.0 1.015625q-3.484375 0 -5.640625 -2.234375q-2.140625 -2.234375 -2.140625 -6.4375zm2.890625 0q0 3.1875 1.390625 4.78125q1.390625 1.578125 3.5 1.578125q2.09375 0 3.484375 -1.59375q1.390625 -1.59375 1.390625 -4.859375q0 -3.078125 -1.40625 -4.65625q-1.390625 -1.59375 -3.46875 -1.59375q-2.109375 0 -3.5 1.578125q-1.390625 1.578125 -1.390625 4.765625zm15.953125 14.65625l0 -22.953125l2.5625 0l0 2.15625q0.90625 -1.265625 2.046875 -1.890625q1.140625 -0.640625 2.765625 -0.640625q2.125 0 3.75 1.09375q1.625 1.09375 2.453125 3.09375q0.828125 1.984375 0.828125 4.359375q0 2.546875 -0.921875 4.59375q-0.90625 2.03125 -2.65625 3.125q-1.734375 1.078125 -3.65625 1.078125q-1.40625 0 -2.53125 -0.59375q-1.109375 -0.59375 -1.828125 -1.5l0 8.078125l-2.8125 0zm2.546875 -14.5625q0 3.203125 1.296875 4.734375q1.296875 1.53125 3.140625 1.53125q1.875 0 3.203125 -1.578125q1.34375 -1.59375 1.34375 -4.921875q0 -3.171875 -1.3125 -4.75q-1.296875 -1.578125 -3.109375 -1.578125q-1.796875 0 -3.1875 1.6875q-1.375 1.671875 -1.375 4.875zm15.125 14.59375l-0.3125 -2.640625q0.921875 0.25 1.609375 0.25q0.9375 0 1.5 -0.3125q0.5625 -0.3125 0.921875 -0.875q0.265625 -0.421875 0.859375 -2.09375q0.078125 -0.234375 0.25 -0.6875l-6.296875 -16.625l3.03125 0l3.453125 9.609375q0.671875 1.828125 1.203125 3.84375q0.484375 -1.9375 1.15625 -3.78125l3.546875 -9.671875l2.8125 0l-6.3125 16.875q-1.015625 2.734375 -1.578125 3.765625q-0.75 1.390625 -1.71875 2.03125q-0.96875 0.65625 -2.3125 0.65625q-0.8125 0 -1.8125 -0.34375zm39.8125 -19.859375l-15.125 0l0 -2.625l15.125 0l0 2.625zm0 6.953125l-15.125 0l0 -2.625l15.125 0l0 2.625zm12.0 -4.78125q0 -4.0625 0.828125 -6.53125q0.84375 -2.484375 2.484375 -3.828125q1.65625 -1.34375 4.15625 -1.34375q1.84375 0 3.234375 0.75q1.390625 0.734375 2.296875 2.140625q0.90625 1.390625 1.421875 3.40625q0.515625 2.0 0.515625 5.40625q0 4.03125 -0.828125 6.515625q-0.828125 2.46875 -2.484375 3.828125q-1.640625 1.34375 -4.15625 1.34375q-3.3125 0 -5.203125 -2.375q-2.265625 -2.859375 -2.265625 -9.3125zm2.890625 0q0 5.640625 1.3125 7.515625q1.328125 1.859375 3.265625 1.859375q1.9375 0 3.25 -1.875q1.328125 -1.875 1.328125 -7.5q0 -5.65625 -1.328125 -7.515625q-1.3125 -1.859375 -3.28125 -1.859375q-1.9375 0 -3.09375 1.640625q-1.453125 2.09375 -1.453125 7.734375z" fill-rule="nonzero"/><path fill="#000000" fill-opacity="0.0" d="m434.95422 207.58005l247.77954 0l0 64.62991l-247.77954 0z" fill-rule="evenodd"/><path fill="#434343" d="m456.85962 247.30005l0 -22.90625l16.5625 0l0 2.703125l-13.53125 0l0 7.015625l12.671875 0l0 2.6875l-12.671875 0l0 7.796875l14.0625 0l0 2.703125l-17.09375 0zm20.921875 0l0 -16.59375l2.53125 0l0 2.359375q1.828125 -2.734375 5.28125 -2.734375q1.5 0 2.75 0.546875q1.265625 0.53125 1.890625 1.40625q0.625 0.875 0.875 2.078125q0.15625 0.78125 0.15625 2.734375l0 10.203125l-2.8125 0l0 -10.09375q0 -1.71875 -0.328125 -2.5625q-0.328125 -0.859375 -1.171875 -1.359375q-0.828125 -0.515625 -1.953125 -0.515625q-1.796875 0 -3.109375 1.140625q-1.296875 1.140625 -1.296875 4.328125l0 9.0625l-2.8125 0zm23.9375 -2.515625l0.40625 2.484375q-1.1875 0.25 -2.125 0.25q-1.53125 0 -2.375 -0.484375q-0.84375 -0.484375 -1.1875 -1.265625q-0.34375 -0.796875 -0.34375 -3.328125l0 -9.546875l-2.0625 0l0 -2.1875l2.0625 0l0 -4.109375l2.796875 -1.6875l0 5.796875l2.828125 0l0 2.1875l-2.828125 0l0 9.703125q0 1.203125 0.140625 1.546875q0.15625 0.34375 0.484375 0.546875q0.34375 0.203125 0.96875 0.203125q0.46875 0 1.234375 -0.109375zm2.71875 2.515625l0 -16.59375l2.53125 0l0 2.515625q0.96875 -1.765625 1.78125 -2.328125q0.828125 -0.5625 1.8125 -0.5625q1.421875 0 2.890625 0.90625l-0.96875 2.609375q-1.03125 -0.609375 -2.0625 -0.609375q-0.921875 0 -1.65625 0.5625q-0.734375 0.546875 -1.046875 1.53125q-0.46875 1.5 -0.46875 3.28125l0 8.6875l-2.8125 0zm9.640625 -8.296875q0 -4.609375 2.5625 -6.828125q2.140625 -1.84375 5.21875 -1.84375q3.421875 0 5.59375 2.25q2.171875 2.234375 2.171875 6.1875q0 3.203125 -0.96875 5.046875q-0.953125 1.828125 -2.796875 2.84375q-1.828125 1.015625 -4.0 1.015625q-3.484375 0 -5.640625 -2.234375q-2.140625 -2.234375 -2.140625 -6.4375zm2.890625 0q0 3.1875 1.390625 4.78125q1.390625 1.578125 3.5 1.578125q2.09375 0 3.484375 -1.59375q1.390625 -1.59375 1.390625 -4.859375q0 -3.078125 -1.40625 -4.65625q-1.390625 -1.59375 -3.46875 -1.59375q-2.109375 0 -3.5 1.578125q-1.390625 1.578125 -1.390625 4.765625zm15.953125 14.65625l0 -22.953125l2.5625 0l0 2.15625q0.90625 -1.265625 2.046875 -1.890625q1.140625 -0.640625 2.765625 -0.640625q2.125 0 3.75 1.09375q1.625 1.09375 2.453125 3.09375q0.828125 1.984375 0.828125 4.359375q0 2.546875 -0.921875 4.59375q-0.90625 2.03125 -2.65625 3.125q-1.734375 1.078125 -3.65625 1.078125q-1.40625 0 -2.53125 -0.59375q-1.109375 -0.59375 -1.828125 -1.5l0 8.078125l-2.8125 0zm2.546875 -14.5625q0 3.203125 1.296875 4.734375q1.296875 1.53125 3.140625 1.53125q1.875 0 3.203125 -1.578125q1.34375 -1.59375 1.34375 -4.921875q0 -3.171875 -1.3125 -4.75q-1.296875 -1.578125 -3.109375 -1.578125q-1.796875 0 -3.1875 1.6875q-1.375 1.671875 -1.375 4.875zm15.125 14.59375l-0.3125 -2.640625q0.921875 0.25 1.609375 0.25q0.9375 0 1.5 -0.3125q0.5625 -0.3125 0.921875 -0.875q0.265625 -0.421875 0.859375 -2.09375q0.078125 -0.234375 0.25 -0.6875l-6.296875 -16.625l3.03125 0l3.453125 9.609375q0.671875 1.828125 1.203125 3.84375q0.484375 -1.9375 1.15625 -3.78125l3.546875 -9.671875l2.8125 0l-6.3125 16.875q-1.015625 2.734375 -1.578125 3.765625q-0.75 1.390625 -1.71875 2.03125q-0.96875 0.65625 -2.3125 0.65625q-0.8125 0 -1.8125 -0.34375zm39.8125 -19.859375l-15.125 0l0 -2.625l15.125 0l0 2.625zm0 6.953125l-15.125 0l0 -2.625l15.125 0l0 2.625zm12.0 -4.78125q0 -4.0625 0.828125 -6.53125q0.84375 -2.484375 2.484375 -3.828125q1.65625 -1.34375 4.15625 -1.34375q1.84375 0 3.234375 0.75q1.390625 0.734375 2.296875 2.140625q0.90625 1.390625 1.421875 3.40625q0.515625 2.0 0.515625 5.40625q0 4.03125 -0.828125 6.515625q-0.828125 2.46875 -2.484375 3.828125q-1.640625 1.34375 -4.15625 1.34375q-3.3125 0 -5.203125 -2.375q-2.265625 -2.859375 -2.265625 -9.3125zm2.890625 0q0 5.640625 1.3125 7.515625q1.328125 1.859375 3.265625 1.859375q1.9375 0 3.25 -1.875q1.328125 -1.875 1.328125 -7.5q0 -5.65625 -1.328125 -7.515625q-1.3125 -1.859375 -3.28125 -1.859375q-1.9375 0 -3.09375 1.640625q-1.453125 2.09375 -1.453125 7.734375zm16.484375 11.296875l0 -3.203125l3.203125 0l0 3.203125l-3.203125 0zm11.640625 -12.421875q-1.75 -0.640625 -2.59375 -1.828125q-0.84375 -1.1875 -0.84375 -2.84375q0 -2.5 1.796875 -4.203125q1.796875 -1.703125 4.78125 -1.703125q3.0 0 4.828125 1.75q1.828125 1.734375 1.828125 4.234375q0 1.59375 -0.84375 2.78125q-0.828125 1.171875 -2.53125 1.8125q2.109375 0.6875 3.203125 2.21875q1.109375 1.53125 1.109375 3.65625q0 2.9375 -2.078125 4.9375q-2.078125 2.0 -5.46875 2.0q-3.390625 0 -5.46875 -2.0q-2.078125 -2.015625 -2.078125 -5.015625q0 -2.234375 1.125 -3.734375q1.140625 -1.515625 3.234375 -2.0625zm-0.5625 -4.765625q0 1.625 1.046875 2.65625q1.046875 1.03125 2.71875 1.03125q1.625 0 2.65625 -1.015625q1.046875 -1.03125 1.046875 -2.515625q0 -1.546875 -1.078125 -2.59375q-1.0625 -1.0625 -2.65625 -1.0625q-1.609375 0 -2.671875 1.03125q-1.0625 1.03125 -1.0625 2.46875zm-0.90625 10.578125q0 1.203125 0.5625 2.328125q0.578125 1.125 1.703125 1.75q1.125 0.609375 2.421875 0.609375q2.015625 0 3.328125 -1.296875q1.3125 -1.296875 1.3125 -3.296875q0 -2.03125 -1.359375 -3.359375q-1.34375 -1.328125 -3.375 -1.328125q-1.984375 0 -3.296875 1.3125q-1.296875 1.3125 -1.296875 3.28125zm25.53125 6.609375l-2.8125 0l0 -17.921875q-1.015625 0.96875 -2.671875 1.9375q-1.640625 0.96875 -2.953125 1.453125l0 -2.71875q2.359375 -1.109375 4.125 -2.6875q1.765625 -1.578125 2.5 -3.0625l1.8125 0l0 23.0z" fill-rule="nonzero"/><path fill="#000000" fill-opacity="0.0" d="m830.4537 208.66142l217.13385 0l0 64.62993l-217.13385 0z" fill-rule="evenodd"/><path fill="#434343" d="m859.27844 248.38142l0 -22.90625l16.5625 0l0 2.703125l-13.53125 0l0 7.015625l12.671875 0l0 2.6875l-12.671875 0l0 7.796875l14.0625 0l0 2.703125l-17.09375 0zm20.921875 0l0 -16.59375l2.53125 0l0 2.359375q1.828125 -2.734375 5.28125 -2.734375q1.5 0 2.75 0.546875q1.265625 0.53125 1.890625 1.40625q0.625 0.875 0.875 2.078125q0.15625 0.78125 0.15625 2.734375l0 10.203125l-2.8125 0l0 -10.09375q0 -1.71875 -0.328125 -2.5625q-0.328125 -0.859375 -1.171875 -1.359375q-0.828125 -0.515625 -1.953125 -0.515625q-1.796875 0 -3.109375 1.140625q-1.296875 1.140625 -1.296875 4.328125l0 9.0625l-2.8125 0zm23.9375 -2.515625l0.40625 2.484375q-1.1875 0.25 -2.125 0.25q-1.53125 0 -2.375 -0.484375q-0.84375 -0.484375 -1.1875 -1.265625q-0.34375 -0.796875 -0.34375 -3.328125l0 -9.546875l-2.0625 0l0 -2.1875l2.0625 0l0 -4.109375l2.796875 -1.6875l0 5.796875l2.828125 0l0 2.1875l-2.828125 0l0 9.703125q0 1.203125 0.140625 1.546875q0.15625 0.34375 0.484375 0.546875q0.34375 0.203125 0.96875 0.203125q0.46875 0 1.234375 -0.109375zm2.71875 2.515625l0 -16.59375l2.53125 0l0 2.515625q0.96875 -1.765625 1.78125 -2.328125q0.828125 -0.5625 1.8125 -0.5625q1.421875 0 2.890625 0.90625l-0.96875 2.609375q-1.03125 -0.609375 -2.0625 -0.609375q-0.921875 0 -1.65625 0.5625q-0.734375 0.546875 -1.046875 1.53125q-0.46875 1.5 -0.46875 3.28125l0 8.6875l-2.8125 0zm9.640625 -8.296875q0 -4.609375 2.5625 -6.828125q2.140625 -1.84375 5.21875 -1.84375q3.421875 0 5.59375 2.25q2.171875 2.234375 2.171875 6.1875q0 3.203125 -0.96875 5.046875q-0.953125 1.828125 -2.796875 2.84375q-1.828125 1.015625 -4.0 1.015625q-3.484375 0 -5.640625 -2.234375q-2.140625 -2.234375 -2.140625 -6.4375zm2.890625 0q0 3.1875 1.390625 4.78125q1.390625 1.578125 3.5 1.578125q2.09375 0 3.484375 -1.59375q1.390625 -1.59375 1.390625 -4.859375q0 -3.078125 -1.40625 -4.65625q-1.390625 -1.59375 -3.46875 -1.59375q-2.109375 0 -3.5 1.578125q-1.390625 1.578125 -1.390625 4.765625zm15.953125 14.65625l0 -22.953125l2.5625 0l0 2.15625q0.90625 -1.265625 2.046875 -1.890625q1.140625 -0.640625 2.765625 -0.640625q2.125 0 3.75 1.09375q1.625 1.09375 2.453125 3.09375q0.828125 1.984375 0.828125 4.359375q0 2.546875 -0.921875 4.59375q-0.90625 2.03125 -2.65625 3.125q-1.734375 1.078125 -3.65625 1.078125q-1.40625 0 -2.53125 -0.59375q-1.109375 -0.59375 -1.828125 -1.5l0 8.078125l-2.8125 0zm2.546875 -14.5625q0 3.203125 1.296875 4.734375q1.296875 1.53125 3.140625 1.53125q1.875 0 3.203125 -1.578125q1.34375 -1.59375 1.34375 -4.921875q0 -3.171875 -1.3125 -4.75q-1.296875 -1.578125 -3.109375 -1.578125q-1.796875 0 -3.1875 1.6875q-1.375 1.671875 -1.375 4.875zm15.125 14.59375l-0.3125 -2.640625q0.921875 0.25 1.609375 0.25q0.9375 0 1.5 -0.3125q0.5625 -0.3125 0.921875 -0.875q0.265625 -0.421875 0.859375 -2.09375q0.078125 -0.234375 0.25 -0.6875l-6.296875 -16.625l3.03125 0l3.453125 9.609375q0.67181396 1.828125 1.203064 3.84375q0.484375 -1.9375 1.15625 -3.78125l3.546875 -9.671875l2.8125 0l-6.3125 16.875q-1.015625 2.734375 -1.578125 3.765625q-0.74993896 1.390625 -1.718689 2.03125q-0.96875 0.65625 -2.3125 0.65625q-0.8125 0 -1.8125 -0.34375zm39.81244 -19.859375l-15.125 0l0 -2.625l15.125 0l0 2.625zm0 6.953125l-15.125 0l0 -2.625l15.125 0l0 2.625zm22.59375 6.515625l-2.8125 0l0 -17.921875q-1.015625 0.96875 -2.671875 1.9375q-1.640625 0.96875 -2.953125 1.453125l0 -2.71875q2.359375 -1.109375 4.125 -2.6875q1.765625 -1.578125 2.5 -3.0625l1.8125 0l0 23.0z" fill-rule="nonzero"/><path fill="#ff6633" d="m23.463196 510.9834l23.905514 -45.007874l23.905514 45.007874z" fill-rule="evenodd"/><path fill="#ff6633" d="m102.415955 510.9834l23.90551 -45.007874l23.90551 45.007874z" fill-rule="evenodd"/><path fill="#ff6633" d="m178.41595 510.9834l23.905502 -45.007874l23.905518 45.007874z" fill-rule="evenodd"/><path fill="#ff6633" d="m254.41595 510.9834l23.905518 -45.007874l23.905518 45.007874z" fill-rule="evenodd"/><path fill="#000000" fill-opacity="0.0" d="m797.4173 352.26l0 0c0 -12.428589 10.702881 -22.503937 23.905518 -22.503937l0 0c6.340149 0 12.420593 2.3709412 16.903748 6.5912476c4.4831543 4.2203064 7.00177 9.944275 7.00177 15.912689l0 0c0 12.428589 -10.70282 22.503937 -23.905518 22.503937l0 0c-13.202637 0 -23.905518 -10.075348 -23.905518 -22.503937z" fill-rule="evenodd"/><path stroke="#4a86e8" stroke-width="3.0" stroke-linejoin="round" stroke-linecap="butt" d="m797.4173 352.26l0 0c0 -12.428589 10.702881 -22.503937 23.905518 -22.503937l0 0c6.340149 0 12.420593 2.3709412 16.903748 6.5912476c4.4831543 4.2203064 7.00177 9.944275 7.00177 15.912689l0 0c0 12.428589 -10.70282 22.503937 -23.905518 22.503937l0 0c-13.202637 0 -23.905518 -10.075348 -23.905518 -22.503937z" fill-rule="evenodd"/><path fill="#000000" fill-opacity="0.0" d="m876.37006 352.26l0 0c0 -12.428589 10.702881 -22.503937 23.905518 -22.503937l0 0c6.340149 0 12.420593 2.3709412 16.903748 6.5912476c4.4831543 4.2203064 7.00177 9.944275 7.00177 15.912689l0 0c0 12.428589 -10.702881 22.503937 -23.905518 22.503937l0 0c-13.202637 0 -23.905518 -10.075348 -23.905518 -22.503937z" fill-rule="evenodd"/><path stroke="#4a86e8" stroke-width="3.0" stroke-linejoin="round" stroke-linecap="butt" d="m876.37006 352.26l0 0c0 -12.428589 10.702881 -22.503937 23.905518 -22.503937l0 0c6.340149 0 12.420593 2.3709412 16.903748 6.5912476c4.4831543 4.2203064 7.00177 9.944275 7.00177 15.912689l0 0c0 12.428589 -10.702881 22.503937 -23.905518 22.503937l0 0c-13.202637 0 -23.905518 -10.075348 -23.905518 -22.503937z" fill-rule="evenodd"/><path fill="#4a86e8" d="m1028.3701 352.26l0 0c0 -12.428589 10.702881 -22.503937 23.905518 -22.503937l0 0c6.340088 0 12.420532 2.3709412 16.903687 6.5912476c4.4831543 4.2203064 7.001831 9.944275 7.001831 15.912689l0 0c0 12.428589 -10.702881 22.503937 -23.905518 22.503937l0 0c-13.202637 0 -23.905518 -10.075348 -23.905518 -22.503937z" fill-rule="evenodd"/><path fill="#000000" fill-opacity="0.0" d="m797.41724 510.24426l23.905518 -45.007874l23.905518 45.007874z" fill-rule="evenodd"/><path stroke="#ff6633" stroke-width="3.0" stroke-linejoin="round" stroke-linecap="butt" d="m797.41724 510.24426l23.905518 -45.007874l23.905518 45.007874z" fill-rule="evenodd"/><path fill="#000000" fill-opacity="0.0" d="m797.41626 397.49738l47.810974 0l0 45.007874l-47.810974 0z" fill-rule="evenodd"/><path stroke="#ff9900" stroke-width="3.0" stroke-linejoin="round" stroke-linecap="butt" d="m797.41626 397.49738l47.810974 0l0 45.007874l-47.810974 0z" fill-rule="evenodd"/><path fill="#000000" fill-opacity="0.0" d="m876.36896 397.49738l47.811035 0l0 45.007874l-47.811035 0z" fill-rule="evenodd"/><path stroke="#ff9900" stroke-width="3.0" stroke-linejoin="round" stroke-linecap="butt" d="m876.36896 397.49738l47.811035 0l0 45.007874l-47.811035 0z" fill-rule="evenodd"/><path fill="#000000" fill-opacity="0.0" d="m952.36896 397.49738l47.811035 0l0 45.007874l-47.811035 0z" fill-rule="evenodd"/><path stroke="#ff9900" stroke-width="3.0" stroke-linejoin="round" stroke-linecap="butt" d="m952.36896 397.49738l47.811035 0l0 45.007874l-47.811035 0z" fill-rule="evenodd"/><path fill="#ff9900" d="m1028.369 397.49738l47.811035 0l0 45.007874l-47.811035 0z" fill-rule="evenodd"/><path fill="#000000" fill-opacity="0.0" d="m876.37 510.24426l23.905518 -45.007874l23.905518 45.007874z" fill-rule="evenodd"/><path stroke="#ff6633" stroke-width="3.0" stroke-linejoin="round" stroke-linecap="butt" d="m876.37 510.24426l23.905518 -45.007874l23.905518 45.007874z" fill-rule="evenodd"/><path fill="#000000" fill-opacity="0.0" d="m952.37 510.24426l23.905518 -45.007874l23.905518 45.007874z" fill-rule="evenodd"/><path stroke="#ff6633" stroke-width="3.0" stroke-linejoin="round" stroke-linecap="butt" d="m952.37 510.24426l23.905518 -45.007874l23.905518 45.007874z" fill-rule="evenodd"/><path fill="#ff6633" d="m1028.37 510.24426l23.905518 -45.007874l23.905518 45.007874z" fill-rule="evenodd"/><path fill="#000000" fill-opacity="0.0" d="m900.2756 329.75607l0 45.007874" fill-rule="evenodd"/><path stroke="#4a86e8" stroke-width="3.0" stroke-linejoin="round" stroke-linecap="butt" d="m900.2756 329.75607l0 45.007874" fill-rule="evenodd"/><path fill="#000000" fill-opacity="0.0" d="m950.95483 352.26l0 0c0 -12.428589 10.70282 -22.503937 23.905518 -22.503937l0 0c6.340088 0 12.420593 2.3709412 16.903748 6.5912476c4.4831543 4.2203064 7.001709 9.944275 7.001709 15.912689l0 0c0 12.428589 -10.70282 22.503937 -23.905457 22.503937l0 0c-13.202698 0 -23.905518 -10.075348 -23.905518 -22.503937z" fill-rule="evenodd"/><path stroke="#4a86e8" stroke-width="3.0" stroke-linejoin="round" stroke-linecap="butt" d="m950.95483 352.26l0 0c0 -12.428589 10.70282 -22.503937 23.905518 -22.503937l0 0c6.340088 0 12.420593 2.3709412 16.903748 6.5912476c4.4831543 4.2203064 7.001709 9.944275 7.001709 15.912689l0 0c0 12.428589 -10.70282 22.503937 -23.905457 22.503937l0 0c-13.202698 0 -23.905518 -10.075348 -23.905518 -22.503937z" fill-rule="evenodd"/><path fill="#000000" fill-opacity="0.0" d="m991.7641 336.34732l-33.795288 31.811035" fill-rule="evenodd"/><path stroke="#4a86e8" stroke-width="3.0" stroke-linejoin="round" stroke-linecap="butt" d="m991.7641 336.34732l-33.795288 31.811035" fill-rule="evenodd"/><path fill="#000000" fill-opacity="0.0" d="m957.9566 336.34732l33.795227 31.811035" fill-rule="evenodd"/><path stroke="#4a86e8" stroke-width="3.0" stroke-linejoin="round" stroke-linecap="butt" d="m957.9566 336.34732l33.795227 31.811035" fill-rule="evenodd"/><path fill="#000000" fill-opacity="0.0" d="m900.2745 397.49738l0 45.007874" fill-rule="evenodd"/><path stroke="#ff9900" stroke-width="3.0" stroke-linejoin="round" stroke-linecap="butt" d="m900.2745 397.49738l0 45.007874" fill-rule="evenodd"/><path fill="#000000" fill-opacity="0.0" d="m1000.18 420.0013l-47.811035 0" fill-rule="evenodd"/><path stroke="#ff9900" stroke-width="3.0" stroke-linejoin="round" stroke-linecap="butt" d="m1000.18 420.0013l-47.811035 0" fill-rule="evenodd"/><path fill="#000000" fill-opacity="0.0" d="m976.2745 397.49738l0 45.007874" fill-rule="evenodd"/><path stroke="#ff9900" stroke-width="3.0" stroke-linejoin="round" stroke-linecap="butt" d="m976.2745 397.49738l0 45.007874" fill-rule="evenodd"/><path fill="#000000" fill-opacity="0.0" d="m900.2755 510.24426l0 -45.007874" fill-rule="evenodd"/><path stroke="#ff6633" stroke-width="3.0" stroke-linejoin="round" stroke-linecap="butt" d="m900.2755 510.24426l0 -45.007874" fill-rule="evenodd"/><path fill="#000000" fill-opacity="0.0" d="m976.2755 510.24426l0 -45.007874" fill-rule="evenodd"/><path stroke="#ff6633" stroke-width="3.0" stroke-linejoin="round" stroke-linecap="butt" d="m976.2755 510.24426l0 -45.007874" fill-rule="evenodd"/><path fill="#000000" fill-opacity="0.0" d="m1000.181 510.24426l-35.84253 -22.48819" fill-rule="evenodd"/><path stroke="#ff6633" stroke-width="3.0" stroke-linejoin="round" stroke-linecap="butt" d="m1000.181 510.24426l-35.84253 -22.48819" fill-rule="evenodd"/><path fill="#000000" fill-opacity="0.0" d="m988.2283 487.74033l-35.84253 22.519684" fill-rule="evenodd"/><path stroke="#ff6633" stroke-width="3.0" stroke-linejoin="round" stroke-linecap="butt" d="m988.2283 487.74033l-35.84253 22.519684" fill-rule="evenodd"/><path fill="#000000" fill-opacity="0.0" d="m38.2783 527.5801l247.77953 0l0 64.62988l-247.77953 0z" fill-rule="evenodd"/><path fill="#434343" d="m60.18369 567.30005l0 -22.90625l16.562504 0l0 2.703125l-13.531254 0l0 7.015625l12.671879 0l0 2.6875l-12.671879 0l0 7.796875l14.062504 0l0 2.703125l-17.093754 0zm20.921879 0l0 -16.59375l2.53125 0l0 2.359375q1.828125 -2.734375 5.28125 -2.734375q1.5 0 2.75 0.546875q1.265625 0.53125 1.890625 1.40625q0.625 0.875 0.875 2.078125q0.15625 0.78125 0.15625 2.734375l0 10.203125l-2.8125 0l0 -10.09375q0 -1.71875 -0.328125 -2.5625q-0.328125 -0.859375 -1.171875 -1.359375q-0.828125 -0.515625 -1.953125 -0.515625q-1.796875 0 -3.109375 1.140625q-1.296875 1.140625 -1.296875 4.328125l0 9.0625l-2.8125 0zm23.9375 -2.515625l0.40625 2.484375q-1.1875 0.25 -2.125 0.25q-1.53125 0 -2.375 -0.484375q-0.84375 -0.484375 -1.1875 -1.265625q-0.34375 -0.796875 -0.34375 -3.328125l0 -9.546875l-2.0625 0l0 -2.1875l2.0625 0l0 -4.109375l2.796875 -1.6875l0 5.796875l2.828125 0l0 2.1875l-2.828125 0l0 9.703125q0 1.203125 0.140625 1.546875q0.15625 0.34375 0.484375 0.546875q0.34375 0.203125 0.96875 0.203125q0.46875 0 1.234375 -0.109375zm2.71875 2.515625l0 -16.59375l2.53125 0l0 2.515625q0.96875 -1.765625 1.78125 -2.328125q0.828125 -0.5625 1.8125 -0.5625q1.421875 0 2.890625 0.90625l-0.96875 2.609375q-1.03125 -0.609375 -2.0625 -0.609375q-0.921875 0 -1.65625 0.5625q-0.734375 0.546875 -1.046875 1.53125q-0.46875 1.5 -0.46875 3.28125l0 8.6875l-2.8125 0zm9.640625 -8.296875q0 -4.609375 2.5625 -6.828125q2.140625 -1.84375 5.21875 -1.84375q3.4218674 0 5.5937424 2.25q2.171875 2.234375 2.171875 6.1875q0 3.203125 -0.96875 5.046875q-0.953125 1.828125 -2.796875 2.84375q-1.8281174 1.015625 -3.9999924 1.015625q-3.484375 0 -5.640625 -2.234375q-2.140625 -2.234375 -2.140625 -6.4375zm2.890625 0q0 3.1875 1.390625 4.78125q1.390625 1.578125 3.5 1.578125q2.09375 0 3.4843674 -1.59375q1.390625 -1.59375 1.390625 -4.859375q0 -3.078125 -1.40625 -4.65625q-1.3906174 -1.59375 -3.4687424 -1.59375q-2.109375 0 -3.5 1.578125q-1.390625 1.578125 -1.390625 4.765625zm15.953117 14.65625l0 -22.953125l2.5625 0l0 2.15625q0.90625 -1.265625 2.046875 -1.890625q1.140625 -0.640625 2.765625 -0.640625q2.125 0 3.75 1.09375q1.625 1.09375 2.453125 3.09375q0.828125 1.984375 0.828125 4.359375q0 2.546875 -0.921875 4.59375q-0.90625 2.03125 -2.65625 3.125q-1.734375 1.078125 -3.65625 1.078125q-1.40625 0 -2.53125 -0.59375q-1.109375 -0.59375 -1.828125 -1.5l0 8.078125l-2.8125 0zm2.546875 -14.5625q0 3.203125 1.296875 4.734375q1.296875 1.53125 3.140625 1.53125q1.875 0 3.203125 -1.578125q1.34375 -1.59375 1.34375 -4.921875q0 -3.171875 -1.3125 -4.75q-1.296875 -1.578125 -3.109375 -1.578125q-1.796875 0 -3.1875 1.6875q-1.375 1.671875 -1.375 4.875zm15.125 14.59375l-0.3125 -2.640625q0.921875 0.25 1.609375 0.25q0.9375 0 1.5 -0.3125q0.5625 -0.3125 0.921875 -0.875q0.265625 -0.421875 0.859375 -2.09375q0.078125 -0.234375 0.25 -0.6875l-6.296875 -16.625l3.03125 0l3.453125 9.609375q0.671875 1.828125 1.203125 3.84375q0.484375 -1.9375 1.15625 -3.78125l3.546875 -9.671875l2.8125153 0l-6.3125153 16.875q-1.015625 2.734375 -1.578125 3.765625q-0.75 1.390625 -1.71875 2.03125q-0.96875 0.65625 -2.3125 0.65625q-0.8125 0 -1.8125 -0.34375zm39.812515 -19.859375l-15.125 0l0 -2.625l15.125 0l0 2.625zm0 6.953125l-15.125 0l0 -2.625l15.125 0l0 2.625zm22.59375 6.515625l-2.8125 0l0 -17.921875q-1.015625 0.96875 -2.671875 1.9375q-1.640625 0.96875 -2.953125 1.453125l0 -2.71875q2.359375 -1.109375 4.125 -2.6875q1.765625 -1.578125 2.5 -3.0625l1.8125 0l0 23.0zm8.78125 0l0 -3.203125l3.203125 0l0 3.203125l-3.203125 0zm7.3125 -6.0l2.953125 -0.25q0.328125 2.15625 1.515625 3.25q1.203125 1.078125 2.890625 1.078125q2.03125 0 3.4375 -1.53125q1.40625 -1.53125 1.40625 -4.0625q0 -2.40625 -1.359375 -3.796875q-1.34375 -1.390625 -3.53125 -1.390625q-1.359375 0 -2.453125 0.625q-1.09375 0.609375 -1.71875 1.59375l-2.640625 -0.34375l2.21875 -11.765625l11.390625 0l0 2.6875l-9.140625 0l-1.234375 6.15625q2.0625 -1.4375 4.328125 -1.4375q3.0 0 5.0625 2.078125q2.0625 2.078125 2.0625 5.34375q0 3.109375 -1.8125 5.375q-2.203125 2.78125 -6.015625 2.78125q-3.125 0 -5.109375 -1.75q-1.96875 -1.75 -2.25 -4.640625zm22.125 -6.421875q-1.75 -0.640625 -2.59375 -1.828125q-0.84375 -1.1875 -0.84375 -2.84375q0 -2.5 1.796875 -4.203125q1.796875 -1.703125 4.7812347 -1.703125q3.0 0 4.828125 1.75q1.828125 1.734375 1.828125 4.234375q0 1.59375 -0.84375 2.78125q-0.828125 1.171875 -2.53125 1.8125q2.109375 0.6875 3.203125 2.21875q1.109375 1.53125 1.109375 3.65625q0 2.9375 -2.078125 4.9375q-2.078125 2.0 -5.46875 2.0q-3.3906097 0 -5.4687347 -2.0q-2.078125 -2.015625 -2.078125 -5.015625q0 -2.234375 1.125 -3.734375q1.140625 -1.515625 3.234375 -2.0625zm-0.5625 -4.765625q0 1.625 1.046875 2.65625q1.0468597 1.03125 2.7187347 1.03125q1.625 0 2.65625 -1.015625q1.046875 -1.03125 1.046875 -2.515625q0 -1.546875 -1.078125 -2.59375q-1.0625 -1.0625 -2.65625 -1.0625q-1.609375 0 -2.6718597 1.03125q-1.0625 1.03125 -1.0625 2.46875zm-0.90625 10.578125q0 1.203125 0.5625 2.328125q0.578125 1.125 1.703125 1.75q1.1249847 0.609375 2.4218597 0.609375q2.015625 0 3.328125 -1.296875q1.3125 -1.296875 1.3125 -3.296875q0 -2.03125 -1.359375 -3.359375q-1.34375 -1.328125 -3.375 -1.328125q-1.9843597 0 -3.2968597 1.3125q-1.296875 1.3125 -1.296875 3.28125z" fill-rule="nonzero"/><path fill="#000000" fill-opacity="0.0" d="m431.42264 527.5801l247.77951 0l0 64.62988l-247.77951 0z" fill-rule="evenodd"/><path fill="#434343" d="m453.328 567.30005l0 -22.90625l16.5625 0l0 2.703125l-13.53125 0l0 7.015625l12.671875 0l0 2.6875l-12.671875 0l0 7.796875l14.0625 0l0 2.703125l-17.09375 0zm20.921875 0l0 -16.59375l2.53125 0l0 2.359375q1.828125 -2.734375 5.28125 -2.734375q1.5 0 2.75 0.546875q1.265625 0.53125 1.890625 1.40625q0.625 0.875 0.875 2.078125q0.15625 0.78125 0.15625 2.734375l0 10.203125l-2.8125 0l0 -10.09375q0 -1.71875 -0.328125 -2.5625q-0.328125 -0.859375 -1.171875 -1.359375q-0.828125 -0.515625 -1.953125 -0.515625q-1.796875 0 -3.109375 1.140625q-1.296875 1.140625 -1.296875 4.328125l0 9.0625l-2.8125 0zm23.9375 -2.515625l0.40625 2.484375q-1.1875 0.25 -2.125 0.25q-1.53125 0 -2.375 -0.484375q-0.84375 -0.484375 -1.1875 -1.265625q-0.34375 -0.796875 -0.34375 -3.328125l0 -9.546875l-2.0625 0l0 -2.1875l2.0625 0l0 -4.109375l2.796875 -1.6875l0 5.796875l2.828125 0l0 2.1875l-2.828125 0l0 9.703125q0 1.203125 0.140625 1.546875q0.15625 0.34375 0.484375 0.546875q0.34375 0.203125 0.96875 0.203125q0.46875 0 1.234375 -0.109375zm2.71875 2.515625l0 -16.59375l2.53125 0l0 2.515625q0.96875 -1.765625 1.78125 -2.328125q0.828125 -0.5625 1.8125 -0.5625q1.421875 0 2.890625 0.90625l-0.96875 2.609375q-1.03125 -0.609375 -2.0625 -0.609375q-0.921875 0 -1.65625 0.5625q-0.734375 0.546875 -1.046875 1.53125q-0.46875 1.5 -0.46875 3.28125l0 8.6875l-2.8125 0zm9.640625 -8.296875q0 -4.609375 2.5625 -6.828125q2.140625 -1.84375 5.21875 -1.84375q3.421875 0 5.59375 2.25q2.171875 2.234375 2.171875 6.1875q0 3.203125 -0.96875 5.046875q-0.953125 1.828125 -2.796875 2.84375q-1.828125 1.015625 -4.0 1.015625q-3.484375 0 -5.640625 -2.234375q-2.140625 -2.234375 -2.140625 -6.4375zm2.890625 0q0 3.1875 1.390625 4.78125q1.390625 1.578125 3.5 1.578125q2.09375 0 3.484375 -1.59375q1.390625 -1.59375 1.390625 -4.859375q0 -3.078125 -1.40625 -4.65625q-1.390625 -1.59375 -3.46875 -1.59375q-2.109375 0 -3.5 1.578125q-1.390625 1.578125 -1.390625 4.765625zm15.953125 14.65625l0 -22.953125l2.5625 0l0 2.15625q0.90625 -1.265625 2.046875 -1.890625q1.140625 -0.640625 2.765625 -0.640625q2.125 0 3.75 1.09375q1.625 1.09375 2.453125 3.09375q0.828125 1.984375 0.828125 4.359375q0 2.546875 -0.921875 4.59375q-0.90625 2.03125 -2.65625 3.125q-1.734375 1.078125 -3.65625 1.078125q-1.40625 0 -2.53125 -0.59375q-1.109375 -0.59375 -1.828125 -1.5l0 8.078125l-2.8125 0zm2.546875 -14.5625q0 3.203125 1.296875 4.734375q1.296875 1.53125 3.140625 1.53125q1.875 0 3.203125 -1.578125q1.34375 -1.59375 1.34375 -4.921875q0 -3.171875 -1.3125 -4.75q-1.296875 -1.578125 -3.109375 -1.578125q-1.796875 0 -3.1875 1.6875q-1.375 1.671875 -1.375 4.875zm15.125 14.59375l-0.3125 -2.640625q0.921875 0.25 1.609375 0.25q0.9375 0 1.5 -0.3125q0.5625 -0.3125 0.921875 -0.875q0.265625 -0.421875 0.859375 -2.09375q0.078125 -0.234375 0.25 -0.6875l-6.296875 -16.625l3.03125 0l3.453125 9.609375q0.671875 1.828125 1.203125 3.84375q0.484375 -1.9375 1.15625 -3.78125l3.546875 -9.671875l2.8125 0l-6.3125 16.875q-1.015625 2.734375 -1.578125 3.765625q-0.75 1.390625 -1.71875 2.03125q-0.96875 0.65625 -2.3125 0.65625q-0.8125 0 -1.8125 -0.34375zm39.8125 -19.859375l-15.125 0l0 -2.625l15.125 0l0 2.625zm0 6.953125l-15.125 0l0 -2.625l15.125 0l0 2.625zm26.78125 3.8125l0 2.703125l-15.140625 0q-0.03125 -1.015625 0.328125 -1.953125q0.578125 -1.546875 1.84375 -3.046875q1.28125 -1.5 3.6875 -3.46875q3.734375 -3.0625 5.046875 -4.84375q1.3125 -1.796875 1.3125 -3.390625q0 -1.671875 -1.203125 -2.8125q-1.1875 -1.15625 -3.109375 -1.15625q-2.03125 0 -3.25 1.21875q-1.21875 1.21875 -1.234375 3.375l-2.890625 -0.296875q0.296875 -3.234375 2.234375 -4.921875q1.9375 -1.703125 5.203125 -1.703125q3.296875 0 5.21875 1.828125q1.921875 1.828125 1.921875 4.53125q0 1.375 -0.5625 2.703125q-0.5625 1.328125 -1.875 2.796875q-1.296875 1.46875 -4.328125 4.03125q-2.53125 2.125 -3.25 2.890625q-0.71875 0.75 -1.1875 1.515625l11.234375 0zm4.59375 2.703125l0 -3.203125l3.203125 0l0 3.203125l-3.203125 0zm7.3125 -6.0l2.953125 -0.25q0.328125 2.15625 1.515625 3.25q1.203125 1.078125 2.890625 1.078125q2.03125 0 3.4375 -1.53125q1.40625 -1.53125 1.40625 -4.0625q0 -2.40625 -1.359375 -3.796875q-1.34375 -1.390625 -3.53125 -1.390625q-1.359375 0 -2.453125 0.625q-1.09375 0.609375 -1.71875 1.59375l-2.640625 -0.34375l2.21875 -11.765625l11.390625 0l0 2.6875l-9.140625 0l-1.234375 6.15625q2.0625 -1.4375 4.328125 -1.4375q3.0 0 5.0625 2.078125q2.0625 2.078125 2.0625 5.34375q0 3.109375 -1.8125 5.375q-2.203125 2.78125 -6.015625 2.78125q-3.125 0 -5.109375 -1.75q-1.96875 -1.75 -2.25 -4.640625zm22.125 -6.421875q-1.75 -0.640625 -2.59375 -1.828125q-0.84375 -1.1875 -0.84375 -2.84375q0 -2.5 1.796875 -4.203125q1.796875 -1.703125 4.78125 -1.703125q3.0 0 4.828125 1.75q1.828125 1.734375 1.828125 4.234375q0 1.59375 -0.84375 2.78125q-0.828125 1.171875 -2.53125 1.8125q2.109375 0.6875 3.203125 2.21875q1.109375 1.53125 1.109375 3.65625q0 2.9375 -2.078125 4.9375q-2.078125 2.0 -5.46875 2.0q-3.390625 0 -5.46875 -2.0q-2.078125 -2.015625 -2.078125 -5.015625q0 -2.234375 1.125 -3.734375q1.140625 -1.515625 3.234375 -2.0625zm-0.5625 -4.765625q0 1.625 1.046875 2.65625q1.046875 1.03125 2.71875 1.03125q1.625 0 2.65625 -1.015625q1.046875 -1.03125 1.046875 -2.515625q0 -1.546875 -1.078125 -2.59375q-1.0625 -1.0625 -2.65625 -1.0625q-1.609375 0 -2.671875 1.03125q-1.0625 1.03125 -1.0625 2.46875zm-0.90625 10.578125q0 1.203125 0.5625 2.328125q0.578125 1.125 1.703125 1.75q1.125 0.609375 2.421875 0.609375q2.015625 0 3.328125 -1.296875q1.3125 -1.296875 1.3125 -3.296875q0 -2.03125 -1.359375 -3.359375q-1.34375 -1.328125 -3.375 -1.328125q-1.984375 0 -3.296875 1.3125q-1.296875 1.3125 -1.296875 3.28125z" fill-rule="nonzero"/><path fill="#000000" fill-opacity="0.0" d="m814.4541 528.66144l247.77954 0l0 64.62988l-247.77954 0z" fill-rule="evenodd"/><path fill="#434343" d="m836.3595 568.3814l0 -22.90625l16.5625 0l0 2.703125l-13.53125 0l0 7.015625l12.671875 0l0 2.6875l-12.671875 0l0 7.796875l14.0625 0l0 2.703125l-17.09375 0zm20.921875 0l0 -16.59375l2.53125 0l0 2.359375q1.828125 -2.734375 5.28125 -2.734375q1.5 0 2.75 0.546875q1.265625 0.53125 1.890625 1.40625q0.625 0.875 0.875 2.078125q0.15625 0.78125 0.15625 2.734375l0 10.203125l-2.8125 0l0 -10.09375q0 -1.71875 -0.328125 -2.5625q-0.328125 -0.859375 -1.171875 -1.359375q-0.828125 -0.515625 -1.953125 -0.515625q-1.796875 0 -3.109375 1.140625q-1.296875 1.140625 -1.296875 4.328125l0 9.0625l-2.8125 0zm23.9375 -2.515625l0.40625 2.484375q-1.1875 0.25 -2.125 0.25q-1.53125 0 -2.375 -0.484375q-0.84375 -0.484375 -1.1875 -1.265625q-0.34375 -0.796875 -0.34375 -3.328125l0 -9.546875l-2.0625 0l0 -2.1875l2.0625 0l0 -4.109375l2.796875 -1.6875l0 5.796875l2.828125 0l0 2.1875l-2.828125 0l0 9.703125q0 1.203125 0.140625 1.546875q0.15625 0.34375 0.484375 0.546875q0.34375 0.203125 0.96875 0.203125q0.46875 0 1.234375 -0.109375zm2.71875 2.515625l0 -16.59375l2.53125 0l0 2.515625q0.96875 -1.765625 1.78125 -2.328125q0.828125 -0.5625 1.8125 -0.5625q1.421875 0 2.890625 0.90625l-0.96875 2.609375q-1.03125 -0.609375 -2.0625 -0.609375q-0.921875 0 -1.65625 0.5625q-0.734375 0.546875 -1.046875 1.53125q-0.46875 1.5 -0.46875 3.28125l0 8.6875l-2.8125 0zm9.640625 -8.296875q0 -4.609375 2.5625 -6.828125q2.140625 -1.84375 5.21875 -1.84375q3.421875 0 5.59375 2.25q2.171875 2.234375 2.171875 6.1875q0 3.203125 -0.96875 5.046875q-0.953125 1.828125 -2.796875 2.84375q-1.828125 1.015625 -4.0 1.015625q-3.484375 0 -5.640625 -2.234375q-2.140625 -2.234375 -2.140625 -6.4375zm2.890625 0q0 3.1875 1.390625 4.78125q1.390625 1.578125 3.5 1.578125q2.09375 0 3.484375 -1.59375q1.390625 -1.59375 1.390625 -4.859375q0 -3.078125 -1.40625 -4.65625q-1.390625 -1.59375 -3.46875 -1.59375q-2.109375 0 -3.5 1.578125q-1.390625 1.578125 -1.390625 4.765625zm15.953125 14.65625l0 -22.953125l2.5625 0l0 2.15625q0.90625 -1.265625 2.046875 -1.890625q1.140625 -0.640625 2.765625 -0.640625q2.125 0 3.75 1.09375q1.625 1.09375 2.453125 3.09375q0.828125 1.984375 0.828125 4.359375q0 2.546875 -0.921875 4.59375q-0.90625 2.03125 -2.65625 3.125q-1.734375 1.078125 -3.65625 1.078125q-1.40625 0 -2.53125 -0.59375q-1.109375 -0.59375 -1.828125 -1.5l0 8.078125l-2.8125 0zm2.546875 -14.5625q0 3.203125 1.296875 4.734375q1.296875 1.53125 3.140625 1.53125q1.875 0 3.203125 -1.578125q1.34375 -1.59375 1.34375 -4.921875q0 -3.171875 -1.3125 -4.75q-1.296875 -1.578125 -3.109375 -1.578125q-1.796875 0 -3.1875 1.6875q-1.375 1.671875 -1.375 4.875zm15.125 14.59375l-0.3125 -2.640625q0.921875 0.25 1.609375 0.25q0.9375 0 1.5 -0.3125q0.5625 -0.3125 0.921875 -0.875q0.265625 -0.421875 0.859375 -2.09375q0.078125 -0.234375 0.25 -0.6875l-6.296875 -16.625l3.03125 0l3.453125 9.609375q0.671875 1.828125 1.203125 3.84375q0.484375 -1.9375 1.15625 -3.78125l3.546875 -9.671875l2.8125 0l-6.3125 16.875q-1.015625 2.734375 -1.578125 3.765625q-0.75 1.390625 -1.71875 2.03125q-0.96875 0.65625 -2.3125 0.65625q-0.8125 0 -1.8125 -0.34375zm39.8125 -19.859375l-15.125 0l0 -2.625l15.125 0l0 2.625zm0 6.953125l-15.125 0l0 -2.625l15.125 0l0 2.625zm12.015625 0.46875l2.8125 -0.375q0.484375 2.390625 1.640625 3.453125q1.171875 1.046875 2.84375 1.046875q1.984375 0 3.34375 -1.375q1.375 -1.375 1.375 -3.40625q0 -1.9375 -1.265625 -3.1875q-1.265625 -1.265625 -3.21875 -1.265625q-0.796875 0 -1.984375 0.3125l0.3125 -2.46875q0.28125 0.03125 0.453125 0.03125q1.796875 0 3.234375 -0.9375q1.4375 -0.9375 1.4375 -2.890625q0 -1.546875 -1.046875 -2.5625q-1.046875 -1.015625 -2.703125 -1.015625q-1.640625 0 -2.734375 1.03125q-1.09375 1.03125 -1.40625 3.09375l-2.8125 -0.5q0.515625 -2.828125 2.34375 -4.375q1.828125 -1.5625 4.546875 -1.5625q1.875 0 3.453125 0.8125q1.578125 0.796875 2.40625 2.1875q0.84375 1.390625 0.84375 2.953125q0 1.484375 -0.796875 2.703125q-0.796875 1.21875 -2.359375 1.9375q2.03125 0.46875 3.15625 1.953125q1.125 1.46875 1.125 3.6875q0 3.0 -2.1875 5.09375q-2.1875 2.078125 -5.53125 2.078125q-3.015625 0 -5.015625 -1.796875q-1.984375 -1.796875 -2.265625 -4.65625zm19.359375 6.046875l0 -3.203125l3.203125 0l0 3.203125l-3.203125 0zm7.3125 -6.0l2.953125 -0.25q0.328125 2.15625 1.515625 3.25q1.203125 1.078125 2.890625 1.078125q2.03125 0 3.4375 -1.53125q1.40625 -1.53125 1.40625 -4.0625q0 -2.40625 -1.359375 -3.796875q-1.34375 -1.390625 -3.53125 -1.390625q-1.359375 0 -2.453125 0.625q-1.09375 0.609375 -1.71875 1.59375l-2.640625 -0.34375l2.21875 -11.765625l11.390625 0l0 2.6875l-9.140625 0l-1.234375 6.15625q2.0625 -1.4375 4.328125 -1.4375q3.0 0 5.0625 2.078125q2.0625 2.078125 2.0625 5.34375q0 3.109375 -1.8125 5.375q-2.203125 2.78125 -6.015625 2.78125q-3.125 0 -5.109375 -1.75q-1.96875 -1.75 -2.25 -4.640625zm22.125 -6.421875q-1.75 -0.640625 -2.59375 -1.828125q-0.84375 -1.1875 -0.84375 -2.84375q0 -2.5 1.796875 -4.203125q1.796875 -1.703125 4.78125 -1.703125q3.0 0 4.828125 1.75q1.828125 1.734375 1.828125 4.234375q0 1.59375 -0.84375 2.78125q-0.828125 1.171875 -2.53125 1.8125q2.109375 0.6875 3.203125 2.21875q1.109375 1.53125 1.109375 3.65625q0 2.9375 -2.078125 4.9375q-2.078125 2.0 -5.46875 2.0q-3.390625 0 -5.46875 -2.0q-2.078125 -2.015625 -2.078125 -5.015625q0 -2.234375 1.125 -3.734375q1.140625 -1.515625 3.234375 -2.0625zm-0.5625 -4.765625q0 1.625 1.046875 2.65625q1.046875 1.03125 2.71875 1.03125q1.625 0 2.65625 -1.015625q1.046875 -1.03125 1.046875 -2.515625q0 -1.546875 -1.078125 -2.59375q-1.0625 -1.0625 -2.65625 -1.0625q-1.609375 0 -2.671875 1.03125q-1.0625 1.03125 -1.0625 2.46875zm-0.90625 10.578125q0 1.203125 0.5625 2.328125q0.578125 1.125 1.703125 1.75q1.125 0.609375 2.421875 0.609375q2.015625 0 3.328125 -1.296875q1.3125 -1.296875 1.3125 -3.296875q0 -2.03125 -1.359375 -3.359375q-1.34375 -1.328125 -3.375 -1.328125q-1.984375 0 -3.296875 1.3125q-1.296875 1.3125 -1.296875 3.28125z" fill-rule="nonzero"/></g></svg>